<?xml version="1.0" encoding="UTF-8" standalone="no"?><!DOCTYPE svg PUBLIC "-//W3C//DTD SVG 1.1//EN" "http://www.w3.org/Graphics/SVG/1.1/DTD/svg11.dtd"><svg width="100%" height="100%" viewBox="0 0 37 37" version="1.1" xmlns="http://www.w3.org/2000/svg" xmlns:xlink="http://www.w3.org/1999/xlink" xml:space="preserve" style="fill-rule:evenodd;clip-rule:evenodd;stroke-linejoin:round;stroke-miterlimit:1.41421;"><rect id="Logo" x="0" y="0" width="36.649" height="36.649" style="fill:none;"/><g><circle cx="18.325" cy="18.325" r="18.325" style="fill:#89c4f4;"/><g><path d="M7.529,24.544l0,-12.791c0,-0.774 0.633,-1.291 1.408,-1.291l18.776,0c0.774,0 1.408,0.517 1.408,1.291l0,12.791" style="fill:#3e3e42;fill-rule:nonzero;"/><path d="M6.12,24.896l0,0.235c0,0.516 0.423,1.056 0.939,1.056l22.531,0c0.517,0 0.939,-0.54 0.939,-1.056l0,-0.235c0,-0.258 -0.211,-0.352 -0.469,-0.352l-23.47,0c-0.258,0 -0.47,0.094 -0.47,0.352Z" style="fill:#d2d2d6;fill-rule:nonzero;"/><rect x="8.702" y="11.636" width="19.245" height="11.735" style="fill:#57575e;"/><path d="M21.141,25.248l-5.633,0c-0.258,0 -0.469,-0.328 -0.469,-0.586l0,-0.118l6.571,0l0,0.118c0,0.258 -0.211,0.586 -0.469,0.586Z" style="fill:#a6a6ad;fill-rule:nonzero;"/></g></g></svg>